Coordinates
version=1
nRows=4
nColumns=63
inDegrees=yes

Units are S.I. units (second, meters, Newtons, ...)
If the header above contains a line with 'inDegrees', this indicates whether rotational values are in degrees (yes) or radians (no).

endheader
time	pelvis_tilt	pelvis_list	pelvis_rotation	pelvis_tx	pelvis_ty	pelvis_tz	hip_flexion_r	hip_adduction_r	hip_rotation_r	knee_angle_r	knee_angle_r_beta	ankle_angle_r	subtalar_angle_r	mtp_angle_r	hip_flexion_l	hip_adduction_l	hip_rotation_l	knee_angle_l	knee_angle_l_beta	ankle_angle_l	subtalar_angle_l	mtp_angle_l	L5_S1_Flex_Ext	L5_S1_Lat_Bending	L5_S1_axial_rotation	L4_L5_Flex_Ext	L4_L5_Lat_Bending	L4_L5_axial_rotation	L3_L4_Flex_Ext	L3_L4_Lat_Bending	L3_L4_axial_rotation	L2_L3_Flex_Ext	L2_L3_Lat_Bending	L2_L3_axial_rotation	L1_L2_Flex_Ext	L1_L2_Lat_Bending	L1_L2_axial_rotation	L1_T12_Flex_Ext	L1_T12_Lat_Bending	L1_T12_axial_rotation	Abs_r3	Abs_r2	Abs_r1	Abs_t1	Abs_t2	neck_flexion	neck_bending	neck_rotation	arm_flex_r	arm_add_r	arm_rot_r	elbow_flex_r	pro_sup_r	wrist_flex_r	wrist_dev_r	arm_flex_l	arm_add_l	arm_rot_l	elbow_flex_l	pro_sup_l	wrist_flex_l	wrist_dev_l
      0.00000000	      0.31884935	     -3.66717457	     91.77962365	      0.21186798	      0.81791634	      0.75217007	      3.04203516	      2.29060186	      8.58568331	      7.13064318	      0.12445320	     38.00457917	    -15.24409628	      0.00000000	      2.02502328	     -0.16110940	     26.49598316	      1.47088820	      0.02567184	     38.07046834	    -14.36949372	      0.00000000	      0.23948081	      0.33054324	     -1.71249467	      0.44473982	      0.43962251	     -1.81952559	      0.39344303	      0.80368284	     -1.81952559	      0.27370262	      0.80368284	     -1.49843284	      0.22238188	      0.67404378	     -1.39140192	      0.13683934	      0.51201148	     -1.28437101	      1.71058749	      3.73917126	     -9.52438163	      0.00000000	      0.00000000	     28.12989721	      3.89978404	     -7.03610097	     26.47227816	    -15.98184017	     90.85979506	     45.10668139	      3.13530927	      0.92344359	     -6.08222130	     21.01188499	     -6.98964797	     60.28798409	     40.25856459	     87.17096760	     -4.95658656	     -4.21868199
      0.01694915	      0.28140506	     -3.69971693	     92.30177512	      0.21281331	      0.81811573	      0.75105161	      3.35625217	      2.30436888	      6.63001558	      7.67570576	      0.13396634	     38.24887743	    -14.63872729	      0.00000000	      2.08034664	     -0.21386425	     27.19323092	      1.42517271	      0.02487396	     38.50787454	    -14.14737559	      0.00000000	      0.24075518	      0.33351253	     -1.88714368	      0.44710645	      0.44357166	     -2.00509016	      0.39553669	      0.81090236	     -2.00509016	      0.27515910	      0.81090236	     -1.65125072	      0.22356526	      0.68009875	     -1.53330424	      0.13756751	      0.51661091	     -1.41535776	      1.71969019	      3.77276042	    -10.49572698	      0.00000000	      0.00000000	     28.08770834	      3.32482163	     -5.05698160	     25.87188434	    -14.84360132	     88.68158334	     43.91497899	      2.29032598	      1.12571653	      0.94116571	     18.62428505	     -7.07671732	     53.74701676	     41.62178186	     85.62370554	     -3.12609602	     -3.56404703
      0.03389831	      0.21082654	     -3.76683234	     92.63663055	      0.21379168	      0.81804110	      0.74985966	      3.69490140	      2.23286143	      4.68789216	      8.27539380	      0.14443287	     38.80536424	    -13.35934472	      0.00000000	      2.11449648	     -0.23174339	     27.65401382	      1.34568160	      0.02348657	     38.77249363	    -13.99397976	      0.00000000	      0.24809324	      0.32261151	     -2.00343674	      0.46073396	      0.42907331	     -2.12865153	      0.40759239	      0.78439763	     -2.12865153	      0.28354577	      0.78439763	     -1.75300714	      0.23037939	      0.65786940	     -1.62779235	      0.14176048	      0.49972523	     -1.50257755	      1.77210522	      3.64944595	    -11.14251410	      0.00000000	      0.00000000	     28.06874777	      2.85832964	     -4.24883569	     25.18693770	    -13.95394685	     86.41521968	     43.32534885	      2.11043373	     -0.13870007	      5.25069634	     16.74625903	     -7.03281217	     48.56523023	     42.81395408	     84.89214313	     -1.53572993	     -2.64523622
      0.05084746	      0.15285785	     -3.81088947	     92.84171830	      0.21487045	      0.81780414	      0.74879834	      3.96268171	      2.21656197	      3.72161122	      8.82202459	      0.15397338	     39.21738899	    -12.96017336	      0.00000000	      2.10817122	     -0.26290981	     27.90029969	      1.27864445	      0.02231656	     38.95218525	    -13.85580355	      0.00000000	      0.25041711	      0.30756605	     -2.11461441	      0.46504961	      0.40906285	     -2.24677782	      0.41141026	      0.74781610	     -2.24677782	      0.28620171	      0.74781610	     -1.85028761	      0.23253733	      0.62718869	     -1.71812421	      0.14308833	      0.47641981	     -1.58596081	      1.78870435	      3.47924868	    -11.76085099	      0.00000000	      0.00000000	     28.05598648	      2.78849766	     -3.74166776	     25.08495993	    -13.12477804	     85.71403571	     42.85574864	      1.99524126	     -0.85800943	      7.62441064	     15.55229004	     -7.27897486	     45.60307993	     43.88325304	     82.87103034	     -0.83818420	     -1.91326214
